<svg xmlns="http://www.w3.org/2000/svg" viewBox="0 0 800 600">
  <!-- Define the gradient -->
  <defs>
    <linearGradient id="gradientBg" x1="0%" y1="0%" x2="100%" y2="0%">
      <stop offset="0%" stop-color="#2563EB"/>
      <stop offset="100%" stop-color="#7E22CE"/>
    </linearGradient>
  </defs>

  <!-- Background with gradient -->
  <rect width="800" height="600" fill="url(#gradientBg)"/>

  <!-- Base keyboard structure -->
  <rect x="50" y="100" width="700" height="400" rx="25" ry="25" fill="#B2F2BB" stroke="#000000" stroke-width="6"/>

  <!-- Standard keys -->
  <g fill="#FFFFFF" stroke="#000000" stroke-width="5">
    <rect x="70" y="120" width="80" height="80" rx="7" ry="7"/>
    <rect x="160" y="120" width="80" height="80" rx="7" ry="7"/>
    <rect x="250" y="120" width="80" height="80" rx="7" ry="7"/>
    <rect x="340" y="120" width="80" height="80" rx="7" ry="7"/>
    <rect x="430" y="120" width="80" height="80" rx="7" ry="7"/>
    <rect x="520" y="120" width="80" height="80" rx="7" ry="7"/>
    <rect x="610" y="120" width="80" height="80" rx="7" ry="7"/>
  </g>

  <!-- Active function keys -->
  <g fill="#F97316" stroke="#000000" stroke-width="5">
    <rect x="70" y="220" width="170" height="100" rx="12" ry="12"/>
    <rect x="260" y="220" width="170" height="100" rx="12" ry="12"/>
    <rect x="450" y="220" width="170" height="100" rx="12" ry="12"/>
  </g>

  <!-- Primary action key -->
  <rect x="260" y="340" width="260" height="140" rx="20" ry="20" fill="#10B981" stroke="#000000" stroke-width="6"/>

  <!-- Highlighted hand strokes -->
  <g fill="#FCD34D" stroke="#000000" stroke-width="5">
    <rect x="80" y="380" width="70" height="70" rx="7" ry="7"/>
    <rect x="170" y="380" width="70" height="70" rx="7" ry="7"/>
    <rect x="260" y="380" width="70" height="70" rx="7" ry="7"/>
    <rect x="350" y="380" width="70" height="70" rx="7" ry="7"/>
    <rect x="440" y="380" width="70" height="70" rx="7" ry="7"/>
    <rect x="530" y="380" width="70" height="70" rx="7" ry="7"/>
  </g>
</svg>